<svg width="30" height="30" viewBox="0 0 30 30" fill="none" xmlns="http://www.w3.org/2000/svg">
<path d="M23.5547 9.84375C23.383 12.2268 21.6152 14.0625 19.6875 14.0625C17.7598 14.0625 15.9891 12.2273 15.8203 9.84375C15.6445 7.36465 17.3654 5.625 19.6875 5.625C22.0096 5.625 23.7305 7.40977 23.5547 9.84375Z" stroke="#F9F9F9" stroke-linecap="round" stroke-linejoin="round"/>
<path d="M19.6875 17.8125C15.869 17.8125 12.1969 19.7092 11.277 23.4029C11.1551 23.8916 11.4615 24.375 11.9637 24.375H27.4119C27.9141 24.375 28.2188 23.8916 28.0986 23.4029C27.1787 19.65 23.5067 17.8125 19.6875 17.8125Z" stroke="#F9F9F9" stroke-miterlimit="10"/>
<path d="M11.7188 10.8949C11.5817 12.798 10.1531 14.2969 8.61329 14.2969C7.07345 14.2969 5.64259 12.7986 5.50782 10.8949C5.36778 8.91504 6.75821 7.5 8.61329 7.5C10.4684 7.5 11.8588 8.95137 11.7188 10.8949Z" stroke="#F9F9F9" stroke-linecap="round" stroke-linejoin="round"/>
<path d="M12.0703 17.9297C11.0127 17.4451 9.84784 17.2588 8.61327 17.2588C5.5664 17.2588 2.63085 18.7734 1.8955 21.7236C1.79882 22.1139 2.04374 22.5 2.44452 22.5H9.02343" stroke="#F9F9F9" stroke-miterlimit="10" stroke-linecap="round"/>
</svg>
